{
  "source": "C:\\Users\\Peter\\Desktop\\stuff\\MIUN\\quantitative_research\\video_compression\\videos\\BVI-HD\\BVI-HD_CDVL_videos\\ORIG\\Music_1920x1080_30fps.mp4",
  "output": "C:\\Users\\Peter\\Desktop\\stuff\\MIUN\\quantitative_research\\video_compression\\compressed_videos\\BVI-HD\\h264\\3\\Music_1920x1080_30fps_h264.mp4",
  "codec": "h264",
  "ok": "Input #0, mov,mp4,m4a,3gp,3g2,mj2, from 'C:\\Users\\Peter\\Desktop\\stuff\\MIUN\\quantitative_research\\video_compression\\videos\\BVI-HD\\BVI-HD_CDVL_videos\\ORIG\\Music_1920x1080_30fps.mp4':\n  Metadata:\n    major_brand     : isom\n    minor_version   : 512\n    compatible_brands: isomiso2avc1mp41\n    encoder         : Lavf54.28.101\n  Duration: 00:00:05.00, start: 0.000000, bitrate: 192710 kb/s\n  Stream #0:0[0x1](und): Video: h264 (High 4:4:4 Predictive) (avc1 / 0x31637661), yuv420p(progressive), 1920x1080, 192707 kb/s, 30 fps, 30 tbr, 30 tbn (default)\n    Metadata:\n      handler_name    : VideoHandler\n      vendor_id       : [0][0][0][0]\n[out#0/mp4 @ 000001dfa984dc80] Codec AVOption b:a (set bitrate (in bits/s)) has not been used for any stream. The most likely reason is either wrong type (e.g. a video option with no video streams) or that it is a private option of some decoder which was not actually used for any stream.\nStream mapping:\n  Stream #0:0 -> #0:0 (h264 (native) -> h264 (libx264))\nPress [q] to stop, [?] for help\n[libx264 @ 000001dfa98c00c0] using cpu capabilities: MMX2 SSE2Fast SSSE3 SSE4.2 AVX FMA3 BMI2 AVX2\n[libx264 @ 000001dfa98c00c0] profile High, level 5.0, 4:2:0, 8-bit\n[libx264 @ 000001dfa98c00c0] 264 - core 165 r3222 b35605a - H.264/MPEG-4 AVC codec - Copyleft 2003-2025 - http://www.videolan.org/x264.html - options: cabac=1 ref=5 deblock=1:0:0 analyse=0x3:0x113 me=hex subme=8 psy=1 psy_rd=1.00:0.00 mixed_ref=1 me_range=16 chroma_me=1 trellis=2 8x8dct=1 cqm=0 deadzone=21,11 fast_pskip=1 chroma_qp_offset=-2 threads=18 lookahead_threads=3 sliced_threads=0 nr=0 decimate=1 interlaced=0 bluray_compat=0 constrained_intra=0 bframes=3 b_pyramid=2 b_adapt=1 b_bias=0 direct=3 weightb=1 open_gop=0 weightp=2 keyint=250 keyint_min=25 scenecut=40 intra_refresh=0 rc_lookahead=50 rc=cbr mbtree=1 bitrate=3000 ratetol=1.0 qcomp=0.60 qpmin=0 qpmax=69 qpstep=4 vbv_maxrate=3000 vbv_bufsize=3000 nal_hrd=none filler=0 ip_ratio=1.40 aq=1:1.00\nOutput #0, mp4, to 'C:\\Users\\Peter\\Desktop\\stuff\\MIUN\\quantitative_research\\video_compression\\compressed_videos\\BVI-HD\\h264\\3\\Music_1920x1080_30fps_h264.mp4':\n  Metadata:\n    major_brand     : isom\n    minor_version   : 512\n    compatible_brands: isomiso2avc1mp41\n    encoder         : Lavf62.3.100\n  Stream #0:0(und): Video: h264 (avc1 / 0x31637661), yuv420p(tv, progressive), 1920x1080, q=2-31, 3000 kb/s, 30 fps, 15360 tbn (default)\n    Metadata:\n      encoder         : Lavc62.11.100 libx264\n      handler_name    : VideoHandler\n      vendor_id       : [0][0][0][0]\n    Side data:\n      cpb: bitrate max/min/avg: 3000000/0/3000000 buffer size: 3000000 vbv_delay: N/A\nframe=    0 fps=0.0 q=0.0 size=       0KiB time=N/A bitrate=N/A speed=N/A elapsed=0:00:00.52    \nframe=    0 fps=0.0 q=0.0 size=       0KiB time=N/A bitrate=N/A speed=N/A elapsed=0:00:01.10    \nframe=   11 fps=6.7 q=36.0 size=       0KiB time=00:00:00.26 bitrate=   1.4kbits/s speed=0.162x elapsed=0:00:01.64    \nframe=   26 fps= 12 q=35.0 size=       0KiB time=00:00:00.66 bitrate=   0.6kbits/s speed=0.305x elapsed=0:00:02.18    \nframe=   50 fps= 18 q=34.0 size=     512KiB time=00:00:01.46 bitrate=2860.0kbits/s speed=0.533x elapsed=0:00:02.75    \nframe=   83 fps= 25 q=33.0 size=     768KiB time=00:00:02.66 bitrate=2359.4kbits/s speed=0.809x elapsed=0:00:03.29    \nframe=  119 fps= 31 q=32.0 size=    1024KiB time=00:00:03.80 bitrate=2207.6kbits/s speed=0.99x elapsed=0:00:03.83    \nframe=  141 fps= 32 q=-1.0 size=    1280KiB time=00:00:04.60 bitrate=2279.6kbits/s speed=1.05x elapsed=0:00:04.38    \n[mp4 @ 000001dfa9cb3bc0] Starting second pass: moving the moov atom to the beginning of the file\n[out#0/mp4 @ 000001dfa984dc80] video:1658KiB audio:0KiB subtitle:0KiB other streams:0KiB global headers:0KiB muxing overhead: 0.136594%\nframe=  150 fps= 33 q=-1.0 Lsize=    1660KiB time=00:00:04.93 bitrate=2756.8kbits/s speed=1.08x elapsed=0:00:04.55    \n[libx264 @ 000001dfa98c00c0] frame I:3     Avg QP:29.57  size: 23705\n[libx264 @ 000001dfa98c00c0] frame P:70    Avg QP:31.49  size: 14294\n[libx264 @ 000001dfa98c00c0] frame B:77    Avg QP:33.83  size:  8121\n[libx264 @ 000001dfa98c00c0] consecutive B-frames: 31.3%  0.0%  2.0% 66.7%\n[libx264 @ 000001dfa98c00c0] mb I  I16..4: 66.9% 30.9%  2.2%\n[libx264 @ 000001dfa98c00c0] mb P  I16..4: 26.9% 10.1%  0.2%  P16..4: 24.6%  1.9%  1.5%  0.0%  0.0%    skip:34.7%\n[libx264 @ 000001dfa98c00c0] mb B  I16..4:  0.6%  1.4%  0.0%  B16..8: 32.0%  3.3%  0.3%  direct: 1.1%  skip:61.2%  L0:46.8% L1:50.8% BI: 2.4%\n[libx264 @ 000001dfa98c00c0] 8x8 transform intra:29.6% inter:91.9%\n[libx264 @ 000001dfa98c00c0] direct mvs  spatial:98.7% temporal:1.3%\n[libx264 @ 000001dfa98c00c0] coded y,uvDC,uvAC intra: 11.4% 44.8% 3.2% inter: 4.7% 12.8% 0.1%\n[libx264 @ 000001dfa98c00c0] i16 v,h,dc,p: 24% 16%  7% 53%\n[libx264 @ 000001dfa98c00c0] i8 v,h,dc,ddl,ddr,vr,hd,vl,hu: 10%  4% 13% 11% 16% 15% 11% 12%  8%\n[libx264 @ 000001dfa98c00c0] i4 v,h,dc,ddl,ddr,vr,hd,vl,hu: 15%  5%  8% 10% 15% 16% 11% 10% 10%\n[libx264 @ 000001dfa98c00c0] i8c dc,h,v,p: 45% 19% 12% 24%\n[libx264 @ 000001dfa98c00c0] Weighted P-Frames: Y:0.0% UV:0.0%\n[libx264 @ 000001dfa98c00c0] ref P L0: 48.7% 10.2% 18.5% 10.0% 10.5%  2.1%\n[libx264 @ 000001dfa98c00c0] ref B L0: 77.6% 13.2%  6.4%  2.9%\n[libx264 @ 000001dfa98c00c0] ref B L1: 94.4%  5.6%\n[libx264 @ 000001dfa98c00c0] kb/s:2715.15\n",
  "seconds": 4.788819074630737,
  "probe_out": {}
}